<svg id="Layer_1" data-name="Layer 1" xmlns="http://www.w3.org/2000/svg" viewBox="0 0 1100 216"><defs><style>.cls-1{fill:#231f20;}.cls-2{fill:#00abeb;}</style></defs><title>Slow-Road</title><path class="cls-1" d="M780.52,145.84q2.51-2.55,4.5-8.76t3-17.66q1-11.46,1-28.34,0-16.64-1-28a91.08,91.08,0,0,0-2.86-17.71q-1.92-6.33-4.42-9a7.94,7.94,0,0,0-5.93-2.63,8.14,8.14,0,0,0-6,2.55q-2.51,2.55-4.5,8.75t-3,17.67q-1,11.46-1,28.33t1,28.18a89.32,89.32,0,0,0,2.87,17.66c1.27,4.2,2.73,7.15,4.37,8.88a8,8,0,0,0,6,2.58,8.11,8.11,0,0,0,6-2.54m11.3-111.38a56.85,56.85,0,0,1,16,7A52.39,52.39,0,0,1,820.71,53a51.73,51.73,0,0,1,8.59,16.59,69.47,69.47,0,0,1,3.15,21.45,69.47,69.47,0,0,1-3.15,21.45,50,50,0,0,1-21.48,28.17,56.59,56.59,0,0,1-16,7,71.75,71.75,0,0,1-35.81,0,56.46,56.46,0,0,1-16-7,52.69,52.69,0,0,1-12.93-11.57,51.66,51.66,0,0,1-8.64-16.6,69.77,69.77,0,0,1-3.14-21.45,69.77,69.77,0,0,1,3.14-21.45A51.61,51.61,0,0,1,727.08,53,52.93,52.93,0,0,1,740,41.46a56.72,56.72,0,0,1,16-7,71.75,71.75,0,0,1,35.81,0"/><path class="cls-1" d="M848.59,110.66h28.25l-14.57-34.3Zm88.73,34.54h10.59v1.59H874.77V145.2h16.79l-14-32.95H848a37.5,37.5,0,0,0-2.47,13q0,8.67,4.46,14.32a13.79,13.79,0,0,0,11.3,5.65h2.39v1.59H818.74V145.2h1.12q5.73-.48,12.93-9.07A70.4,70.4,0,0,0,844.21,117l33.42-82.77H888.3Z"/><path class="cls-1" d="M1025.72,72.38a91.6,91.6,0,0,0-2.43-14.21,62.46,62.46,0,0,0-3.5-10,22.86,22.86,0,0,0-4.33-6.61,17.58,17.58,0,0,0-4.74-3.5A11.14,11.14,0,0,0,1005.9,37h-5.25V145.2h5.25a13.23,13.23,0,0,0,5.82-1.31,16.68,16.68,0,0,0,5.52-5,32.84,32.84,0,0,0,4.82-9.47,82.58,82.58,0,0,0,3.27-15.68,180.61,180.61,0,0,0,1.27-22.68,180.49,180.49,0,0,0-.88-18.7M959.27,145.2V37H947.33v-1.6h58.57q16.56,0,29.09,3.94t20.42,11.31a46.88,46.88,0,0,1,11.82,17.5,63.21,63.21,0,0,1,3.93,23,87.61,87.61,0,0,1-.91,13.06,58.65,58.65,0,0,1-3.07,11.81,42.38,42.38,0,0,1-5.53,10.39,41,41,0,0,1-8.51,8.48,49.87,49.87,0,0,1-11.82,6.48,75.39,75.39,0,0,1-15.64,4.06,126.28,126.28,0,0,1-19.78,1.43H947.33V145.2Z"/><path class="cls-1" d="M660,82.13a17.13,17.13,0,0,1-13,5.61V37a20.12,20.12,0,0,1,7.16,1.23,16.6,16.6,0,0,1,6,4,18.85,18.85,0,0,1,4.26,7.72A40.38,40.38,0,0,1,666,61.8,42,42,0,0,1,664.39,74,19.85,19.85,0,0,1,660,82.13M724.87,136q-5,4.07-8.67,4.06a7.21,7.21,0,0,1-5.06-1.79,10.21,10.21,0,0,1-2.82-4.82,49.35,49.35,0,0,1-1.43-7c-.38-2.63-.84-5.37-1.4-8.24s-1.26-5.74-2.11-8.63a27,27,0,0,0-4.1-8.28,30.88,30.88,0,0,0-7-7,32.56,32.56,0,0,0-11.1-4.81,64.87,64.87,0,0,0-16-1.79V87.1q37.58-3.73,37.57-25.94a24.31,24.31,0,0,0-1-7.24,20.2,20.2,0,0,0-4-6.88,24.66,24.66,0,0,0-7.64-6A48,48,0,0,0,677.44,37,95,95,0,0,0,659,35.37H619.71l-14.05,40.5V145.2H593.72v1.59H659V145.2H647V89.33q5.73,0,9,3.35a17.46,17.46,0,0,1,4.5,8.67,95,95,0,0,1,1.79,11.82q.6,6.48,1.79,13A52.21,52.21,0,0,0,667.73,138a19.14,19.14,0,0,0,8,8.67Q681.34,150,690,150a64.52,64.52,0,0,0,10.47-.88,57.21,57.21,0,0,0,12.5-3.9,47.25,47.25,0,0,0,12.85-8Z"/><polygon class="cls-1" points="589.77 35.03 546.96 147.29 548.68 147.29 591.49 35.03 589.77 35.03"/><polygon class="cls-1" points="594.13 35.03 551.32 147.29 553.04 147.29 595.85 35.03 594.13 35.03"/><path class="cls-2" d="M160,60.84a59.57,59.57,0,0,0-8.84-13.09,43.49,43.49,0,0,0-13.17-10,35.66,35.66,0,0,0-16.31-3.94,18.49,18.49,0,0,0-11.18,3.58q-4.9,3.59-4.9,10.27a14.42,14.42,0,0,0,2.31,7.92,22.62,22.62,0,0,0,6.25,6.37,72.78,72.78,0,0,0,9,5.29q5.1,2.55,10.74,5.09t11.31,5.29a82,82,0,0,1,10.74,6.29,56.18,56.18,0,0,1,9,7.76,31.46,31.46,0,0,1,6.25,10.07,34.44,34.44,0,0,1,2.31,12.77,35.28,35.28,0,0,1-2.91,14.8,29,29,0,0,1-9.19,11.11q-6.28,4.73-16.79,7.16A112.62,112.62,0,0,1,119.57,150a70,70,0,0,1-15.32-1.67q-7.44-1.68-12.73-3.35a29.51,29.51,0,0,0-7.92-1.67,6.92,6.92,0,0,0-4.14,1.39,4.36,4.36,0,0,0-1.91,3.7H76V101.27h1.59a64.73,64.73,0,0,0,2.82,12.89,63.52,63.52,0,0,0,5.81,12.66,54.44,54.44,0,0,0,8.56,11,37.64,37.64,0,0,0,11.58,7.68,35.75,35.75,0,0,0,14.36,2.9q7.72,0,12.38-4.13a14.2,14.2,0,0,0,4.65-11.15,15.49,15.49,0,0,0-2.19-8.11,21.91,21.91,0,0,0-5.89-6.41,60.57,60.57,0,0,0-8.47-5.21c-3.18-1.65-6.54-3.26-10.07-4.86s-7-3.25-10.58-5a72.13,72.13,0,0,1-10.07-6A52.23,52.23,0,0,1,82,90.13a30.49,30.49,0,0,1-5.89-9.83,35.27,35.27,0,0,1-2.19-12.61,31.73,31.73,0,0,1,11.54-25A40.84,40.84,0,0,1,100.55,35a75.85,75.85,0,0,1,21.57-2.79,69.67,69.67,0,0,1,14.76,1.67q7.68,1.68,13.33,3.35a33.45,33.45,0,0,0,7.88,1.67,6.27,6.27,0,0,0,4.41-1.48,4.67,4.67,0,0,0,1.64-3.62h1.59V74.37H164.3A44.17,44.17,0,0,0,160,60.84"/><path class="cls-2" d="M173.51,145.2h11.94V37H173.51v-1.6H240V37H226.83V145.2h5.41a34.17,34.17,0,0,0,13.81-2.86,37.05,37.05,0,0,0,11.5-7.81,55.32,55.32,0,0,0,14.21-24.82,56.84,56.84,0,0,0,1.87-14.33h1.59v51.41H173.51Z"/><path class="cls-2" d="M345.51,145.84q2.5-2.55,4.5-8.76t3-17.66q1-11.46,1-28.34,0-16.64-1-28a90.32,90.32,0,0,0-2.86-17.71q-1.92-6.33-4.42-9a7.94,7.94,0,0,0-5.93-2.63,8.14,8.14,0,0,0-6,2.55q-2.51,2.55-4.49,8.75t-3,17.67q-1,11.46-1,28.33t1,28.18a89.32,89.32,0,0,0,2.87,17.66c1.27,4.2,2.73,7.15,4.37,8.88a8,8,0,0,0,6,2.58,8.11,8.11,0,0,0,6-2.54m11.3-111.38a56.72,56.72,0,0,1,16,7A50.2,50.2,0,0,1,394.3,69.63a69.77,69.77,0,0,1,3.14,21.45,69.77,69.77,0,0,1-3.14,21.45,50.11,50.11,0,0,1-21.49,28.17,56.46,56.46,0,0,1-16,7,71.75,71.75,0,0,1-35.81,0,56.59,56.59,0,0,1-16-7,52.69,52.69,0,0,1-12.93-11.57,51.45,51.45,0,0,1-8.63-16.6,69.47,69.47,0,0,1-3.15-21.45,69.47,69.47,0,0,1,3.15-21.45A51.4,51.4,0,0,1,292.07,53,52.93,52.93,0,0,1,305,41.46a56.85,56.85,0,0,1,16-7,71.75,71.75,0,0,1,35.81,0"/><path class="cls-2" d="M475.89,78l-25.55,70H439.92L391.93,37h-8.2v-1.6h61.92V37h-7.88l27.3,66.21,9.87-27.45L458.86,37H452v-1.6h65.41V37H504.14l25,66.69,11.3-32.79a41,41,0,0,0,2.39-13.29q0-9.07-4.42-14.84A13.73,13.73,0,0,0,527,37h-1.59v-1.6h43.46V37h-1.12Q562,37,555,45.72a66.15,66.15,0,0,0-10.71,19.42L515.2,147.91H504.86Z"/><polygon class="cls-1" points="32.26 126.66 32.26 146.82 45.69 146.82 45.69 143.88 35.28 143.88 35.28 137.51 41.08 137.51 41.08 134.58 35.28 134.58 35.28 129.59 45.25 129.59 45.25 126.66 32.26 126.66"/><polygon class="cls-1" points="43.14 81.03 43.14 89.19 33.86 89.19 33.86 81.03 30.84 81.03 30.84 101.2 33.86 101.2 33.86 92.15 43.14 92.15 43.14 101.2 46.16 101.2 46.16 81.03 43.14 81.03"/><polygon class="cls-1" points="31.11 35.41 31.11 38.38 36.99 38.38 36.99 55.58 40.01 55.58 40.01 38.38 45.89 38.38 45.89 35.41 31.11 35.41"/><rect class="cls-1" x="605" y="177.35" width="3.66" height="18.03"/><polygon class="cls-1" points="625.55 177.35 629.02 177.35 629.02 195.38 625.97 195.38 618.94 184.22 618.94 195.38 615.47 195.38 615.47 177.35 618.5 177.35 625.55 188.66 625.55 177.35"/><path class="cls-1" d="M645.1,182a3.66,3.66,0,0,0-3.55-1.83c-1.65,0-2.54.73-2.54,2s1,2,3.55,2.64a9.25,9.25,0,0,1,4.18,2,4.63,4.63,0,0,1,1.29,3.55c0,3.11-2.15,5.25-6.22,5.25-3.14,0-5.46-1-6.95-3l2.79-1.93a4.51,4.51,0,0,0,3.92,1.8c1.86,0,2.8-.68,2.8-2s-.84-2-3.69-2.72c-3.63-.94-5.33-2.69-5.33-5.62s2.07-5.06,6.17-5.06c3,0,5,1,6.32,2.95Z"/><path class="cls-1" d="M657.5,189v6.35h-3.66v-18h6.45c4.26,0,6.75,2,6.75,5.78s-2.54,5.9-6.75,5.9Zm0-3.08h2.28c2.5,0,3.6-.86,3.6-2.82q0-2.67-3.6-2.67H657.5Z"/><rect class="cls-1" x="672.75" y="177.35" width="3.66" height="18.03"/><path class="cls-1" d="M697.06,195.38h-4l-3.24-7.08h-2.93v7.08h-3.65v-18h6.45c4.26,0,6.74,1.94,6.74,5.51a4.77,4.77,0,0,1-3.08,4.84Zm-10.19-10.17h2.46c2.32,0,3.42-.57,3.42-2.35s-1.12-2.4-3.42-2.4h-2.46Z"/><polygon class="cls-1" points="702.67 177.35 713.9 177.35 713.9 180.46 706.33 180.46 706.33 184.51 713.12 184.51 713.12 187.59 706.33 187.59 706.33 192.29 713.9 192.29 713.9 195.38 702.67 195.38 702.67 177.35"/><path class="cls-1" d="M719.88,195.38v-18h6.4q6.93,0,6.92,7.84v2.35q0,7.83-6.92,7.84Zm6.4-3.09c2.38,0,3.27-1.51,3.27-4.75v-2.35c0-3.21-.89-4.73-3.27-4.73h-2.74v11.83Z"/><rect class="cls-1" x="738.81" y="191.3" width="4.08" height="4.08"/><rect class="cls-1" x="759.3" y="177.35" width="3.66" height="18.03"/><polygon class="cls-1" points="779.85 177.35 783.33 177.35 783.33 195.38 780.27 195.38 773.24 184.22 773.24 195.38 769.77 195.38 769.77 177.35 772.8 177.35 779.85 188.66 779.85 177.35"/><path class="cls-1" d="M799.4,182a3.66,3.66,0,0,0-3.55-1.83c-1.65,0-2.54.73-2.54,2s1,2,3.56,2.64a9.3,9.3,0,0,1,4.18,2,4.67,4.67,0,0,1,1.28,3.55c0,3.11-2.14,5.25-6.22,5.25-3.13,0-5.46-1-7-3l2.8-1.93a4.5,4.5,0,0,0,3.91,1.8c1.86,0,2.8-.68,2.8-2s-.83-2-3.68-2.72c-3.63-.94-5.33-2.69-5.33-5.62s2.06-5.06,6.16-5.06c2.95,0,5,1,6.33,2.95Z"/><rect class="cls-1" x="808.31" y="177.35" width="3.66" height="18.03"/><path class="cls-1" d="M825.28,186h6.56v1.65c0,5.35-2.43,8-6.63,8s-6.9-2.64-6.9-8v-2.3c0-5.62,2.64-8.23,6.9-8.23,3.76,0,6.06,2.09,6.61,5.82h-3.5a2.93,2.93,0,0,0-3.11-2.74c-2.17,0-3.24,1.62-3.24,4.88v2.57c0,3.26,1.07,4.88,3.24,4.88,2,0,2.9-1.18,3.11-3.45h-3Z"/><polygon class="cls-1" points="841.65 177.35 841.65 184.51 847.89 184.51 847.89 177.35 851.55 177.35 851.55 195.38 847.89 195.38 847.89 187.59 841.65 187.59 841.65 195.38 837.99 195.38 837.99 177.35 841.65 177.35"/><polygon class="cls-1" points="857.02 177.35 870.61 177.35 870.61 180.46 865.65 180.46 865.65 195.38 861.99 195.38 861.99 180.46 857.02 180.46 857.02 177.35"/><polygon class="cls-1" points="876.05 177.35 887.29 177.35 887.29 180.46 879.71 180.46 879.71 184.93 886.51 184.93 886.51 188.01 879.71 188.01 879.71 195.38 876.05 195.38 876.05 177.35"/><path class="cls-1" d="M903.13,177.35h3.65v10.71c0,5.1-2.71,7.55-6.92,7.55s-6.92-2.43-6.92-7.52V177.35h3.65v10.74c0,3.06,1,4.44,3.27,4.44s3.27-1.38,3.27-4.44Z"/><polygon class="cls-1" points="917.12 177.35 917.12 192.29 924.69 192.29 924.69 195.38 913.46 195.38 913.46 177.35 917.12 177.35"/><rect class="cls-1" x="930.46" y="191.3" width="4.08" height="4.08"/><rect class="cls-1" x="950.95" y="177.35" width="3.66" height="18.03"/><polygon class="cls-1" points="971.49 177.35 974.97 177.35 974.97 195.38 971.91 195.38 964.88 184.22 964.88 195.38 961.41 195.38 961.41 177.35 964.44 177.35 971.49 188.66 971.49 177.35"/><path class="cls-1" d="M991.36,195.38v-18h6.4c4.63,0,6.92,2.61,6.92,7.84v2.35c0,5.22-2.29,7.84-6.92,7.84Zm6.4-3.09c2.38,0,3.27-1.51,3.27-4.75v-2.35c0-3.21-.89-4.73-3.27-4.73H995v11.83Z"/><polygon class="cls-1" points="1010.87 177.35 1022.1 177.35 1022.1 180.46 1014.53 180.46 1014.53 184.51 1021.32 184.51 1021.32 187.59 1014.53 187.59 1014.53 192.29 1022.1 192.29 1022.1 195.38 1010.87 195.38 1010.87 177.35"/><polygon class="cls-1" points="1028.08 177.35 1039.31 177.35 1039.31 180.46 1031.74 180.46 1031.74 184.51 1038.53 184.51 1038.53 187.59 1031.74 187.59 1031.74 192.29 1039.31 192.29 1039.31 195.38 1028.08 195.38 1028.08 177.35"/><path class="cls-1" d="M1049,189v6.35h-3.66v-18h6.45c4.26,0,6.75,2,6.75,5.78s-2.54,5.9-6.75,5.9Zm0-3.08h2.27c2.51,0,3.61-.86,3.61-2.82q0-2.67-3.61-2.67H1049Z"/><rect class="cls-1" x="1061.43" y="191.3" width="4.07" height="4.08"/></svg>